<svg width="188" height="54" viewBox="0 0 188 54" fill="none" xmlns="http://www.w3.org/2000/svg">
<path d="M83.616 23.2884L79.59 38.7324H75.036L72.572 28.5684L70.02 38.7324H65.466L61.55 23.2884H65.576L67.798 34.5304L70.548 23.2884H74.684L77.324 34.5304L79.568 23.2884H83.616ZM97.0747 32.3964C97.0747 32.7484 97.0527 33.1151 97.0087 33.4964H88.4947C88.5533 34.2591 88.7953 34.8458 89.2207 35.2564C89.6607 35.6524 90.196 35.8504 90.8267 35.8504C91.7653 35.8504 92.418 35.4544 92.7847 34.6624H96.7887C96.5833 35.4691 96.2093 36.1951 95.6667 36.8404C95.1387 37.4858 94.4713 37.9918 93.6647 38.3584C92.858 38.7251 91.956 38.9084 90.9587 38.9084C89.756 38.9084 88.6853 38.6518 87.7467 38.1384C86.808 37.6251 86.0747 36.8918 85.5467 35.9384C85.0187 34.9851 84.7547 33.8704 84.7547 32.5944C84.7547 31.3184 85.0113 30.2038 85.5247 29.2504C86.0527 28.2971 86.786 27.5638 87.7247 27.0504C88.6633 26.5371 89.7413 26.2804 90.9587 26.2804C92.1467 26.2804 93.2027 26.5298 94.1267 27.0284C95.0507 27.5271 95.7693 28.2384 96.2827 29.1624C96.8107 30.0864 97.0747 31.1644 97.0747 32.3964ZM93.2247 31.4064C93.2247 30.7611 93.0047 30.2478 92.5647 29.8664C92.1247 29.4851 91.5747 29.2944 90.9147 29.2944C90.284 29.2944 89.7487 29.4778 89.3087 29.8444C88.8833 30.2111 88.6193 30.7318 88.5167 31.4064H93.2247ZM109.113 23.2884V26.3024H102.821V29.5584H107.529V32.4844H102.821V38.7324H99.0593V23.2884H109.113ZM112.983 25.1804C112.323 25.1804 111.78 24.9898 111.355 24.6084C110.944 24.2124 110.739 23.7284 110.739 23.1564C110.739 22.5698 110.944 22.0858 111.355 21.7044C111.78 21.3084 112.323 21.1104 112.983 21.1104C113.628 21.1104 114.156 21.3084 114.567 21.7044C114.992 22.0858 115.205 22.5698 115.205 23.1564C115.205 23.7284 114.992 24.2124 114.567 24.6084C114.156 24.9898 113.628 25.1804 112.983 25.1804ZM114.853 26.4564V38.7324H111.091V26.4564H114.853ZM125.059 26.3244C126.496 26.3244 127.64 26.7938 128.491 27.7324C129.356 28.6564 129.789 29.9324 129.789 31.5604V38.7324H126.049V32.0664C126.049 31.2451 125.836 30.6071 125.411 30.1524C124.986 29.6978 124.414 29.4704 123.695 29.4704C122.976 29.4704 122.404 29.6978 121.979 30.1524C121.554 30.6071 121.341 31.2451 121.341 32.0664V38.7324H117.579V26.4564H121.341V28.0844C121.722 27.5418 122.236 27.1164 122.881 26.8084C123.526 26.4858 124.252 26.3244 125.059 26.3244ZM131.655 32.5724C131.655 31.3111 131.89 30.2038 132.359 29.2504C132.843 28.2971 133.496 27.5638 134.317 27.0504C135.138 26.5371 136.055 26.2804 137.067 26.2804C137.932 26.2804 138.688 26.4564 139.333 26.8084C139.993 27.1604 140.499 27.6224 140.851 28.1944V26.4564H144.613V38.7324H140.851V36.9944C140.484 37.5664 139.971 38.0284 139.311 38.3804C138.666 38.7324 137.91 38.9084 137.045 38.9084C136.048 38.9084 135.138 38.6518 134.317 38.1384C133.496 37.6104 132.843 36.8698 132.359 35.9164C131.89 34.9484 131.655 33.8338 131.655 32.5724ZM140.851 32.5944C140.851 31.6558 140.587 30.9151 140.059 30.3724C139.546 29.8298 138.915 29.5584 138.167 29.5584C137.419 29.5584 136.781 29.8298 136.253 30.3724C135.74 30.9004 135.483 31.6338 135.483 32.5724C135.483 33.5111 135.74 34.2591 136.253 34.8164C136.781 35.3591 137.419 35.6304 138.167 35.6304C138.915 35.6304 139.546 35.3591 140.059 34.8164C140.587 34.2738 140.851 33.5331 140.851 32.5944ZM154.815 26.3244C156.252 26.3244 157.396 26.7938 158.247 27.7324C159.112 28.6564 159.545 29.9324 159.545 31.5604V38.7324H155.805V32.0664C155.805 31.2451 155.592 30.6071 155.167 30.1524C154.741 29.6978 154.169 29.4704 153.451 29.4704C152.732 29.4704 152.16 29.6978 151.735 30.1524C151.309 30.6071 151.097 31.2451 151.097 32.0664V38.7324H147.335V26.4564H151.097V28.0844C151.478 27.5418 151.991 27.1164 152.637 26.8084C153.282 26.4858 154.008 26.3244 154.815 26.3244ZM161.411 32.5944C161.411 31.3184 161.668 30.2038 162.181 29.2504C162.709 28.2971 163.435 27.5638 164.359 27.0504C165.298 26.5371 166.368 26.2804 167.571 26.2804C169.111 26.2804 170.394 26.6838 171.421 27.4904C172.462 28.2971 173.144 29.4338 173.467 30.9004H169.463C169.126 29.9618 168.473 29.4924 167.505 29.4924C166.816 29.4924 166.266 29.7638 165.855 30.3064C165.444 30.8344 165.239 31.5971 165.239 32.5944C165.239 33.5918 165.444 34.3618 165.855 34.9044C166.266 35.4324 166.816 35.6964 167.505 35.6964C168.473 35.6964 169.126 35.2271 169.463 34.2884H173.467C173.144 35.7258 172.462 36.8551 171.421 37.6764C170.38 38.4978 169.096 38.9084 167.571 38.9084C166.368 38.9084 165.298 38.6518 164.359 38.1384C163.435 37.6251 162.709 36.8918 162.181 35.9384C161.668 34.9851 161.411 33.8704 161.411 32.5944ZM187.051 32.3964C187.051 32.7484 187.029 33.1151 186.985 33.4964H178.471C178.53 34.2591 178.772 34.8458 179.197 35.2564C179.637 35.6524 180.173 35.8504 180.803 35.8504C181.742 35.8504 182.395 35.4544 182.761 34.6624H186.765C186.56 35.4691 186.186 36.1951 185.643 36.8404C185.115 37.4858 184.448 37.9918 183.641 38.3584C182.835 38.7251 181.933 38.9084 180.935 38.9084C179.733 38.9084 178.662 38.6518 177.723 38.1384C176.785 37.6251 176.051 36.8918 175.523 35.9384C174.995 34.9851 174.731 33.8704 174.731 32.5944C174.731 31.3184 174.988 30.2038 175.501 29.2504C176.029 28.2971 176.763 27.5638 177.701 27.0504C178.64 26.5371 179.718 26.2804 180.935 26.2804C182.123 26.2804 183.179 26.5298 184.103 27.0284C185.027 27.5271 185.746 28.2384 186.259 29.1624C186.787 30.0864 187.051 31.1644 187.051 32.3964ZM183.201 31.4064C183.201 30.7611 182.981 30.2478 182.541 29.8664C182.101 29.4851 181.551 29.2944 180.891 29.2944C180.261 29.2944 179.725 29.4778 179.285 29.8444C178.86 30.2111 178.596 30.7318 178.493 31.4064H183.201Z" fill="white"/>
<mask id="mask0" style="mask-type:alpha" maskUnits="userSpaceOnUse" x="0" y="0" width="34" height="54">
<path d="M0 53.9485L6.88525 53.9485C21.6293 53.9485 33.5817 41.9961 33.5817 27.2521L33.5817 17.3465C33.5817 8.07315 26.0642 0.555621 16.7908 0.55562V0.55562C7.51752 0.555619 3.96054e-06 8.07313 3.15995e-06 17.3465L0 53.9485Z" fill="#C4C4C4"/>
</mask>
<g mask="url(#mask0)">
<rect x="-28.9498" y="-33.9189" width="77.1993" height="117.261" fill="url(#paint0_linear)"/>
</g>
<mask id="mask1" style="mask-type:alpha" maskUnits="userSpaceOnUse" x="0" y="15" width="43" height="39">
<path d="M0 53.9487L23.7301 53.9487C34.3726 53.9487 43 45.3213 43 34.6788V34.6788C43 24.0364 34.3726 15.4089 23.7301 15.4089L21.5 15.4089C9.62588 15.4089 2.49622e-06 25.0348 1.47109e-06 36.9089L0 53.9487Z" fill="#C4C4C4"/>
</mask>
<g mask="url(#mask1)">
<rect x="-64.6928" y="-1.6333" width="107.693" height="72.7019" fill="url(#paint1_linear)"/>
</g>
<defs>
<linearGradient id="paint0_linear" x1="9.64987" y1="-33.9189" x2="9.64987" y2="83.3421" gradientUnits="userSpaceOnUse">
<stop stop-color="white"/>
<stop offset="1" stop-color="white" stop-opacity="0"/>
</linearGradient>
<linearGradient id="paint1_linear" x1="-10.8463" y1="-1.6333" x2="-10.8463" y2="71.0686" gradientUnits="userSpaceOnUse">
<stop stop-color="white"/>
<stop offset="1" stop-color="white" stop-opacity="0"/>
</linearGradient>
</defs>
</svg>
