<svg width="584" height="420" viewBox="0 0 584 420" fill="none" xmlns="http://www.w3.org/2000/svg">
<mask id="mask0" style="mask-type:alpha" maskUnits="userSpaceOnUse" x="0" y="55" width="278" height="171">
<path d="M-1.52588e-05 135C-1.52588e-05 90.8172 35.8172 55 80 55H278V146C278 190.183 242.183 226 198 226H80C35.8172 226 -1.52588e-05 190.183 -1.52588e-05 146V135Z" fill="white"/>
</mask>
<g mask="url(#mask0)">
<g opacity="0.2" filter="url(#filter0_d)">
<rect x="490" y="341" width="1157" height="772" transform="rotate(180 490 341)" fill="#3029D9"/>
</g>
</g>
<path d="M51.188 115.876V108.88H63.376V141H55.544V115.876H51.188ZM73.803 123.752C71.0457 122.285 69.667 119.983 69.667 116.844C69.667 115.26 70.0777 113.823 70.899 112.532C71.7203 111.212 72.967 110.171 74.639 109.408C76.311 108.616 78.3643 108.22 80.799 108.22C83.2337 108.22 85.2723 108.616 86.915 109.408C88.587 110.171 89.8337 111.212 90.655 112.532C91.4763 113.823 91.887 115.26 91.887 116.844C91.887 118.428 91.5057 119.807 90.743 120.98C90.0097 122.153 89.0123 123.077 87.751 123.752C89.335 124.515 90.5523 125.571 91.403 126.92C92.2537 128.24 92.679 129.795 92.679 131.584C92.679 133.667 92.151 135.471 91.095 136.996C90.039 138.492 88.6017 139.636 86.783 140.428C84.9937 141.22 82.999 141.616 80.799 141.616C78.599 141.616 76.5897 141.22 74.771 140.428C72.9817 139.636 71.559 138.492 70.503 136.996C69.447 135.471 68.919 133.667 68.919 131.584C68.919 129.765 69.3443 128.196 70.195 126.876C71.0457 125.527 72.2483 124.485 73.803 123.752ZM84.583 117.988C84.583 116.785 84.231 115.861 83.527 115.216C82.8523 114.541 81.943 114.204 80.799 114.204C79.655 114.204 78.731 114.541 78.027 115.216C77.3523 115.891 77.015 116.829 77.015 118.032C77.015 119.176 77.367 120.085 78.071 120.76C78.775 121.405 79.6843 121.728 80.799 121.728C81.9137 121.728 82.823 121.391 83.527 120.716C84.231 120.041 84.583 119.132 84.583 117.988ZM80.799 127.008C79.4203 127.008 78.3057 127.389 77.455 128.152C76.6043 128.885 76.179 129.912 76.179 131.232C76.179 132.464 76.5897 133.476 77.411 134.268C78.2617 135.06 79.391 135.456 80.799 135.456C82.207 135.456 83.307 135.06 84.099 134.268C84.9203 133.476 85.331 132.464 85.331 131.232C85.331 129.941 84.9057 128.915 84.055 128.152C83.2337 127.389 82.1483 127.008 80.799 127.008Z" fill="#3029D9"/>
<path d="M59.44 168.88L55.76 175.968V180H53.936V175.968L50.24 168.88H52.272L54.848 174.336L57.424 168.88H59.44ZM68.9675 175.376C68.9675 175.707 68.9462 176.005 68.9035 176.272H62.1675C62.2208 176.976 62.4822 177.541 62.9515 177.968C63.4208 178.395 63.9968 178.608 64.6795 178.608C65.6608 178.608 66.3542 178.197 66.7595 177.376H68.7275C68.4608 178.187 67.9755 178.853 67.2715 179.376C66.5782 179.888 65.7142 180.144 64.6795 180.144C63.8368 180.144 63.0795 179.957 62.4075 179.584C61.7462 179.2 61.2235 178.667 60.8395 177.984C60.4662 177.291 60.2795 176.491 60.2795 175.584C60.2795 174.677 60.4608 173.883 60.8235 173.2C61.1968 172.507 61.7142 171.973 62.3755 171.6C63.0475 171.227 63.8155 171.04 64.6795 171.04C65.5115 171.04 66.2528 171.221 66.9035 171.584C67.5542 171.947 68.0608 172.459 68.4235 173.12C68.7862 173.771 68.9675 174.523 68.9675 175.376ZM67.0635 174.8C67.0528 174.128 66.8128 173.589 66.3435 173.184C65.8742 172.779 65.2928 172.576 64.5995 172.576C63.9702 172.576 63.4315 172.779 62.9835 173.184C62.5355 173.579 62.2688 174.117 62.1835 174.8H67.0635ZM70.1545 175.552C70.1545 174.667 70.3358 173.883 70.6985 173.2C71.0718 172.517 71.5732 171.989 72.2025 171.616C72.8425 171.232 73.5465 171.04 74.3145 171.04C75.0078 171.04 75.6105 171.179 76.1225 171.456C76.6452 171.723 77.0612 172.059 77.3705 172.464V171.184H79.2105V180H77.3705V178.688C77.0612 179.104 76.6398 179.451 76.1065 179.728C75.5732 180.005 74.9652 180.144 74.2825 180.144C73.5252 180.144 72.8318 179.952 72.2025 179.568C71.5732 179.173 71.0718 178.629 70.6985 177.936C70.3358 177.232 70.1545 176.437 70.1545 175.552ZM77.3705 175.584C77.3705 174.976 77.2425 174.448 76.9865 174C76.7412 173.552 76.4158 173.211 76.0105 172.976C75.6052 172.741 75.1678 172.624 74.6985 172.624C74.2292 172.624 73.7918 172.741 73.3865 172.976C72.9812 173.2 72.6505 173.536 72.3945 173.984C72.1492 174.421 72.0265 174.944 72.0265 175.552C72.0265 176.16 72.1492 176.693 72.3945 177.152C72.6505 177.611 72.9812 177.963 73.3865 178.208C73.8025 178.443 74.2398 178.56 74.6985 178.56C75.1678 178.56 75.6052 178.443 76.0105 178.208C76.4158 177.973 76.7412 177.632 76.9865 177.184C77.2425 176.725 77.3705 176.192 77.3705 175.584ZM83.4303 172.464C83.6969 172.016 84.0489 171.669 84.4863 171.424C84.9343 171.168 85.4623 171.04 86.0703 171.04V172.928H85.6063C84.8916 172.928 84.3476 173.109 83.9743 173.472C83.6116 173.835 83.4303 174.464 83.4303 175.36V180H81.6063V171.184H83.4303V172.464ZM90.9469 180.144C90.2536 180.144 89.6296 180.021 89.0749 179.776C88.5309 179.52 88.0989 179.179 87.7789 178.752C87.4589 178.315 87.2882 177.829 87.2669 177.296H89.1549C89.1869 177.669 89.3629 177.984 89.6829 178.24C90.0136 178.485 90.4242 178.608 90.9149 178.608C91.4269 178.608 91.8216 178.512 92.0989 178.32C92.3869 178.117 92.5309 177.861 92.5309 177.552C92.5309 177.221 92.3709 176.976 92.0509 176.816C91.7416 176.656 91.2456 176.48 90.5629 176.288C89.9016 176.107 89.3629 175.931 88.9469 175.76C88.5309 175.589 88.1682 175.328 87.8589 174.976C87.5602 174.624 87.4109 174.16 87.4109 173.584C87.4109 173.115 87.5496 172.688 87.8269 172.304C88.1042 171.909 88.4989 171.6 89.0109 171.376C89.5336 171.152 90.1309 171.04 90.8029 171.04C91.8056 171.04 92.6109 171.296 93.2189 171.808C93.8376 172.309 94.1682 172.997 94.2109 173.872H92.3869C92.3549 173.477 92.1949 173.163 91.9069 172.928C91.6189 172.693 91.2296 172.576 90.7389 172.576C90.2589 172.576 89.8909 172.667 89.6349 172.848C89.3789 173.029 89.2509 173.269 89.2509 173.568C89.2509 173.803 89.3362 174 89.5069 174.16C89.6776 174.32 89.8856 174.448 90.1309 174.544C90.3762 174.629 90.7389 174.741 91.2189 174.88C91.8589 175.051 92.3816 175.227 92.7869 175.408C93.2029 175.579 93.5602 175.835 93.8589 176.176C94.1576 176.517 94.3122 176.971 94.3229 177.536C94.3229 178.037 94.1842 178.485 93.9069 178.88C93.6296 179.275 93.2349 179.584 92.7229 179.808C92.2216 180.032 91.6296 180.144 90.9469 180.144ZM102.274 170.352V173.616H106.114V175.104H102.274V178.512H106.594V180H100.45V168.864H106.594V170.352H102.274ZM112.617 175.536L115.465 180H113.401L111.497 177.008L109.705 180H107.801L110.649 175.664L107.801 171.184H109.865L111.769 174.176L113.561 171.184H115.465L112.617 175.536ZM118.649 172.48C118.958 172.075 119.38 171.733 119.913 171.456C120.446 171.179 121.049 171.04 121.721 171.04C122.489 171.04 123.188 171.232 123.817 171.616C124.457 171.989 124.958 172.517 125.321 173.2C125.684 173.883 125.865 174.667 125.865 175.552C125.865 176.437 125.684 177.232 125.321 177.936C124.958 178.629 124.457 179.173 123.817 179.568C123.188 179.952 122.489 180.144 121.721 180.144C121.049 180.144 120.452 180.011 119.929 179.744C119.406 179.467 118.98 179.125 118.649 178.72V184.192H116.825V171.184H118.649V172.48ZM124.009 175.552C124.009 174.944 123.881 174.421 123.625 173.984C123.38 173.536 123.049 173.2 122.633 172.976C122.228 172.741 121.79 172.624 121.321 172.624C120.862 172.624 120.425 172.741 120.009 172.976C119.604 173.211 119.273 173.552 119.017 174C118.772 174.448 118.649 174.976 118.649 175.584C118.649 176.192 118.772 176.725 119.017 177.184C119.273 177.632 119.604 177.973 120.009 178.208C120.425 178.443 120.862 178.56 121.321 178.56C121.79 178.56 122.228 178.443 122.633 178.208C123.049 177.963 123.38 177.611 123.625 177.152C123.881 176.693 124.009 176.16 124.009 175.552ZM135.749 175.376C135.749 175.707 135.727 176.005 135.685 176.272H128.949C129.002 176.976 129.263 177.541 129.733 177.968C130.202 178.395 130.778 178.608 131.461 178.608C132.442 178.608 133.135 178.197 133.541 177.376H135.509C135.242 178.187 134.757 178.853 134.053 179.376C133.359 179.888 132.495 180.144 131.461 180.144C130.618 180.144 129.861 179.957 129.189 179.584C128.527 179.2 128.005 178.667 127.621 177.984C127.247 177.291 127.061 176.491 127.061 175.584C127.061 174.677 127.242 173.883 127.605 173.2C127.978 172.507 128.495 171.973 129.157 171.6C129.829 171.227 130.597 171.04 131.461 171.04C132.293 171.04 133.034 171.221 133.685 171.584C134.335 171.947 134.842 172.459 135.205 173.12C135.567 173.771 135.749 174.523 135.749 175.376ZM133.845 174.8C133.834 174.128 133.594 173.589 133.125 173.184C132.655 172.779 132.074 172.576 131.381 172.576C130.751 172.576 130.213 172.779 129.765 173.184C129.317 173.579 129.05 174.117 128.965 174.8H133.845ZM139.368 172.464C139.634 172.016 139.986 171.669 140.424 171.424C140.872 171.168 141.4 171.04 142.008 171.04V172.928H141.544C140.829 172.928 140.285 173.109 139.912 173.472C139.549 173.835 139.368 174.464 139.368 175.36V180H137.544V171.184H139.368V172.464ZM144.612 170.016C144.282 170.016 144.004 169.904 143.78 169.68C143.556 169.456 143.444 169.179 143.444 168.848C143.444 168.517 143.556 168.24 143.78 168.016C144.004 167.792 144.282 167.68 144.612 167.68C144.932 167.68 145.204 167.792 145.428 168.016C145.652 168.24 145.764 168.517 145.764 168.848C145.764 169.179 145.652 169.456 145.428 169.68C145.204 169.904 144.932 170.016 144.612 170.016ZM145.508 171.184V180H143.684V171.184H145.508ZM155.983 175.376C155.983 175.707 155.962 176.005 155.919 176.272H149.183C149.236 176.976 149.498 177.541 149.967 177.968C150.436 178.395 151.012 178.608 151.695 178.608C152.676 178.608 153.37 178.197 153.775 177.376H155.743C155.476 178.187 154.991 178.853 154.287 179.376C153.594 179.888 152.73 180.144 151.695 180.144C150.852 180.144 150.095 179.957 149.423 179.584C148.762 179.2 148.239 178.667 147.855 177.984C147.482 177.291 147.295 176.491 147.295 175.584C147.295 174.677 147.476 173.883 147.839 173.2C148.212 172.507 148.73 171.973 149.391 171.6C150.063 171.227 150.831 171.04 151.695 171.04C152.527 171.04 153.268 171.221 153.919 171.584C154.57 171.947 155.076 172.459 155.439 173.12C155.802 173.771 155.983 174.523 155.983 175.376ZM154.079 174.8C154.068 174.128 153.828 173.589 153.359 173.184C152.89 172.779 152.308 172.576 151.615 172.576C150.986 172.576 150.447 172.779 149.999 173.184C149.551 173.579 149.284 174.117 149.199 174.8H154.079ZM162.226 171.04C162.919 171.04 163.538 171.184 164.082 171.472C164.637 171.76 165.069 172.187 165.378 172.752C165.687 173.317 165.842 174 165.842 174.8V180H164.034V175.072C164.034 174.283 163.837 173.68 163.442 173.264C163.047 172.837 162.509 172.624 161.826 172.624C161.143 172.624 160.599 172.837 160.194 173.264C159.799 173.68 159.602 174.283 159.602 175.072V180H157.778V171.184H159.602V172.192C159.901 171.829 160.279 171.547 160.738 171.344C161.207 171.141 161.703 171.04 162.226 171.04ZM167.561 175.584C167.561 174.677 167.742 173.883 168.105 173.2C168.478 172.507 168.99 171.973 169.641 171.6C170.291 171.227 171.038 171.04 171.881 171.04C172.947 171.04 173.827 171.296 174.521 171.808C175.225 172.309 175.699 173.029 175.945 173.968H173.977C173.817 173.531 173.561 173.189 173.209 172.944C172.857 172.699 172.414 172.576 171.881 172.576C171.134 172.576 170.537 172.843 170.089 173.376C169.651 173.899 169.433 174.635 169.433 175.584C169.433 176.533 169.651 177.275 170.089 177.808C170.537 178.341 171.134 178.608 171.881 178.608C172.937 178.608 173.635 178.144 173.977 177.216H175.945C175.689 178.112 175.209 178.827 174.505 179.36C173.801 179.883 172.926 180.144 171.881 180.144C171.038 180.144 170.291 179.957 169.641 179.584C168.99 179.2 168.478 178.667 168.105 177.984C167.742 177.291 167.561 176.491 167.561 175.584ZM185.843 175.376C185.843 175.707 185.821 176.005 185.779 176.272H179.043C179.096 176.976 179.357 177.541 179.827 177.968C180.296 178.395 180.872 178.608 181.555 178.608C182.536 178.608 183.229 178.197 183.635 177.376H185.603C185.336 178.187 184.851 178.853 184.147 179.376C183.453 179.888 182.589 180.144 181.555 180.144C180.712 180.144 179.955 179.957 179.283 179.584C178.621 179.2 178.099 178.667 177.715 177.984C177.341 177.291 177.155 176.491 177.155 175.584C177.155 174.677 177.336 173.883 177.699 173.2C178.072 172.507 178.589 171.973 179.251 171.6C179.923 171.227 180.691 171.04 181.555 171.04C182.387 171.04 183.128 171.221 183.779 171.584C184.429 171.947 184.936 172.459 185.299 173.12C185.661 173.771 185.843 174.523 185.843 175.376ZM183.939 174.8C183.928 174.128 183.688 173.589 183.219 173.184C182.749 172.779 182.168 172.576 181.475 172.576C180.845 172.576 180.307 172.779 179.859 173.184C179.411 173.579 179.144 174.117 179.059 174.8H183.939Z" fill="#3029D9"/>
<mask id="mask1" style="mask-type:alpha" maskUnits="userSpaceOnUse" x="0" y="249" width="278" height="171">
<path d="M-1.52588e-05 329C-1.52588e-05 284.817 35.8172 249 80 249H278V340C278 384.183 242.183 420 198 420H80C35.8172 420 -1.52588e-05 384.183 -1.52588e-05 340V329Z" fill="white"/>
</mask>
<g mask="url(#mask1)">
<g opacity="0.2" filter="url(#filter1_d)">
<rect x="490" y="535" width="1157" height="772" transform="rotate(180 490 535)" fill="#3029D9"/>
</g>
</g>
<path d="M60.076 325.584C60.516 327.901 61.8653 329.06 64.124 329.06C65.6787 329.06 66.7787 328.371 67.424 326.992C68.0693 325.613 68.392 323.369 68.392 320.26C67.7467 321.169 66.8667 321.873 65.752 322.372C64.6373 322.871 63.3907 323.12 62.012 323.12C60.1347 323.12 58.4627 322.739 56.996 321.976C55.5293 321.184 54.3707 320.025 53.52 318.5C52.6987 316.945 52.288 315.068 52.288 312.868C52.288 310.697 52.728 308.805 53.608 307.192C54.5173 305.579 55.7933 304.332 57.436 303.452C59.108 302.572 61.0733 302.132 63.332 302.132C67.6733 302.132 70.7094 303.481 72.44 306.18C74.1707 308.879 75.036 312.853 75.036 318.104C75.036 321.917 74.684 325.071 73.98 327.564C73.3053 330.028 72.1467 331.905 70.504 333.196C68.8907 334.487 66.676 335.132 63.86 335.132C61.6307 335.132 59.724 334.692 58.14 333.812C56.5853 332.932 55.3827 331.773 54.532 330.336C53.7107 328.899 53.2413 327.315 53.124 325.584H60.076ZM63.728 317.18C64.96 317.18 65.9427 316.813 66.676 316.08C67.4093 315.317 67.776 314.291 67.776 313C67.776 311.592 67.3947 310.507 66.632 309.744C65.8693 308.981 64.8427 308.6 63.552 308.6C62.2613 308.6 61.2347 308.996 60.472 309.788C59.7387 310.551 59.372 311.607 59.372 312.956C59.372 314.217 59.7387 315.244 60.472 316.036C61.2347 316.799 62.32 317.18 63.728 317.18ZM83.3183 335.352C81.9983 335.352 80.913 334.971 80.0623 334.208C79.241 333.416 78.8303 332.448 78.8303 331.304C78.8303 330.131 79.241 329.148 80.0623 328.356C80.913 327.564 81.9983 327.168 83.3183 327.168C84.609 327.168 85.665 327.564 86.4863 328.356C87.337 329.148 87.7623 330.131 87.7623 331.304C87.7623 332.448 87.337 333.416 86.4863 334.208C85.665 334.971 84.609 335.352 83.3183 335.352ZM114.084 309.436H100.356V315.508C100.943 314.863 101.764 314.335 102.82 313.924C103.876 313.513 105.02 313.308 106.252 313.308C108.452 313.308 110.271 313.807 111.708 314.804C113.175 315.801 114.246 317.092 114.92 318.676C115.595 320.26 115.932 321.976 115.932 323.824C115.932 327.256 114.964 329.984 113.028 332.008C111.092 334.003 108.364 335 104.844 335C102.498 335 100.459 334.604 98.7283 333.812C96.9976 332.991 95.663 331.861 94.7243 330.424C93.7856 328.987 93.2723 327.329 93.1843 325.452H100.532C100.708 326.361 101.134 327.124 101.808 327.74C102.483 328.327 103.407 328.62 104.58 328.62C105.959 328.62 106.986 328.18 107.66 327.3C108.335 326.42 108.672 325.247 108.672 323.78C108.672 322.343 108.32 321.243 107.616 320.48C106.912 319.717 105.886 319.336 104.536 319.336C103.539 319.336 102.718 319.585 102.072 320.084C101.427 320.553 101.002 321.184 100.796 321.976H93.5363V302.836H114.084V309.436ZM137.597 293.2L125.805 343.228H118.545L130.337 293.2H137.597ZM139.231 309.876V302.88H151.419V335H143.587V309.876H139.231ZM156.566 318.5C156.566 313.455 157.534 309.48 159.47 306.576C161.435 303.672 164.589 302.22 168.93 302.22C173.271 302.22 176.41 303.672 178.346 306.576C180.311 309.48 181.294 313.455 181.294 318.5C181.294 323.604 180.311 327.608 178.346 330.512C176.41 333.416 173.271 334.868 168.93 334.868C164.589 334.868 161.435 333.416 159.47 330.512C157.534 327.608 156.566 323.604 156.566 318.5ZM173.902 318.5C173.902 315.537 173.579 313.264 172.934 311.68C172.289 310.067 170.954 309.26 168.93 309.26C166.906 309.26 165.571 310.067 164.926 311.68C164.281 313.264 163.958 315.537 163.958 318.5C163.958 320.495 164.075 322.152 164.31 323.472C164.545 324.763 165.014 325.819 165.718 326.64C166.451 327.432 167.522 327.828 168.93 327.828C170.338 327.828 171.394 327.432 172.098 326.64C172.831 325.819 173.315 324.763 173.55 323.472C173.785 322.152 173.902 320.495 173.902 318.5Z" fill="#3029D9"/>
<path d="M57.904 371.728H53.248L52.448 374H50.544L54.528 362.864H56.64L60.624 374H58.704L57.904 371.728ZM57.392 370.24L55.584 365.072L53.76 370.24H57.392ZM65.7643 372.368L68.2603 365.184H70.1963L66.8363 374H64.6603L61.3163 365.184H63.2683L65.7643 372.368ZM79.655 369.376C79.655 369.707 79.6337 370.005 79.591 370.272H72.855C72.9083 370.976 73.1697 371.541 73.639 371.968C74.1083 372.395 74.6843 372.608 75.367 372.608C76.3483 372.608 77.0417 372.197 77.447 371.376H79.415C79.1483 372.187 78.663 372.853 77.959 373.376C77.2657 373.888 76.4017 374.144 75.367 374.144C74.5243 374.144 73.767 373.957 73.095 373.584C72.4337 373.2 71.911 372.667 71.527 371.984C71.1537 371.291 70.967 370.491 70.967 369.584C70.967 368.677 71.1483 367.883 71.511 367.2C71.8843 366.507 72.4017 365.973 73.063 365.6C73.735 365.227 74.503 365.04 75.367 365.04C76.199 365.04 76.9403 365.221 77.591 365.584C78.2417 365.947 78.7483 366.459 79.111 367.12C79.4737 367.771 79.655 368.523 79.655 369.376ZM77.751 368.8C77.7403 368.128 77.5003 367.589 77.031 367.184C76.5617 366.779 75.9803 366.576 75.287 366.576C74.6577 366.576 74.119 366.779 73.671 367.184C73.223 367.579 72.9563 368.117 72.871 368.8H77.751ZM83.274 366.464C83.5407 366.016 83.8927 365.669 84.33 365.424C84.778 365.168 85.306 365.04 85.914 365.04V366.928H85.45C84.7353 366.928 84.1913 367.109 83.818 367.472C83.4553 367.835 83.274 368.464 83.274 369.36V374H81.45V365.184H83.274V366.464ZM86.9826 369.552C86.9826 368.667 87.164 367.883 87.5266 367.2C87.9 366.517 88.4013 365.989 89.0306 365.616C89.6706 365.232 90.3746 365.04 91.1426 365.04C91.836 365.04 92.4386 365.179 92.9506 365.456C93.4733 365.723 93.8893 366.059 94.1986 366.464V365.184H96.0386V374H94.1986V372.688C93.8893 373.104 93.468 373.451 92.9346 373.728C92.4013 374.005 91.7933 374.144 91.1106 374.144C90.3533 374.144 89.66 373.952 89.0306 373.568C88.4013 373.173 87.9 372.629 87.5266 371.936C87.164 371.232 86.9826 370.437 86.9826 369.552ZM94.1986 369.584C94.1986 368.976 94.0706 368.448 93.8146 368C93.5693 367.552 93.244 367.211 92.8386 366.976C92.4333 366.741 91.996 366.624 91.5266 366.624C91.0573 366.624 90.62 366.741 90.2146 366.976C89.8093 367.2 89.4786 367.536 89.2226 367.984C88.9773 368.421 88.8546 368.944 88.8546 369.552C88.8546 370.16 88.9773 370.693 89.2226 371.152C89.4786 371.611 89.8093 371.963 90.2146 372.208C90.6306 372.443 91.068 372.56 91.5266 372.56C91.996 372.56 92.4333 372.443 92.8386 372.208C93.244 371.973 93.5693 371.632 93.8146 371.184C94.0706 370.725 94.1986 370.192 94.1986 369.584ZM101.986 365.04C102.669 365.04 103.272 365.179 103.794 365.456C104.328 365.723 104.744 366.059 105.042 366.464V365.184H106.882V374.144C106.882 374.955 106.712 375.675 106.37 376.304C106.029 376.944 105.533 377.445 104.882 377.808C104.242 378.171 103.474 378.352 102.578 378.352C101.384 378.352 100.392 378.069 99.6024 377.504C98.8131 376.949 98.3651 376.192 98.2584 375.232H100.066C100.205 375.691 100.498 376.059 100.946 376.336C101.405 376.624 101.949 376.768 102.578 376.768C103.314 376.768 103.906 376.544 104.354 376.096C104.813 375.648 105.042 374.997 105.042 374.144V372.672C104.733 373.088 104.312 373.44 103.778 373.728C103.256 374.005 102.658 374.144 101.986 374.144C101.218 374.144 100.514 373.952 99.8744 373.568C99.2451 373.173 98.7437 372.629 98.3704 371.936C98.0077 371.232 97.8264 370.437 97.8264 369.552C97.8264 368.667 98.0077 367.883 98.3704 367.2C98.7437 366.517 99.2451 365.989 99.8744 365.616C100.514 365.232 101.218 365.04 101.986 365.04ZM105.042 369.584C105.042 368.976 104.914 368.448 104.658 368C104.413 367.552 104.088 367.211 103.682 366.976C103.277 366.741 102.84 366.624 102.37 366.624C101.901 366.624 101.464 366.741 101.058 366.976C100.653 367.2 100.322 367.536 100.066 367.984C99.8211 368.421 99.6984 368.944 99.6984 369.552C99.6984 370.16 99.8211 370.693 100.066 371.152C100.322 371.611 100.653 371.963 101.058 372.208C101.474 372.443 101.912 372.56 102.37 372.56C102.84 372.56 103.277 372.443 103.682 372.208C104.088 371.973 104.413 371.632 104.658 371.184C104.914 370.725 105.042 370.192 105.042 369.584ZM117.358 369.376C117.358 369.707 117.337 370.005 117.294 370.272H110.558C110.611 370.976 110.873 371.541 111.342 371.968C111.811 372.395 112.387 372.608 113.07 372.608C114.051 372.608 114.745 372.197 115.15 371.376H117.118C116.851 372.187 116.366 372.853 115.662 373.376C114.969 373.888 114.105 374.144 113.07 374.144C112.227 374.144 111.47 373.957 110.798 373.584C110.137 373.2 109.614 372.667 109.23 371.984C108.857 371.291 108.67 370.491 108.67 369.584C108.67 368.677 108.851 367.883 109.214 367.2C109.587 366.507 110.105 365.973 110.766 365.6C111.438 365.227 112.206 365.04 113.07 365.04C113.902 365.04 114.643 365.221 115.294 365.584C115.945 365.947 116.451 366.459 116.814 367.12C117.177 367.771 117.358 368.523 117.358 369.376ZM115.454 368.8C115.443 368.128 115.203 367.589 114.734 367.184C114.265 366.779 113.683 366.576 112.99 366.576C112.361 366.576 111.822 366.779 111.374 367.184C110.926 367.579 110.659 368.117 110.574 368.8H115.454ZM125.133 366.464C125.4 366.016 125.752 365.669 126.189 365.424C126.637 365.168 127.165 365.04 127.773 365.04V366.928H127.309C126.595 366.928 126.051 367.109 125.677 367.472C125.315 367.835 125.133 368.464 125.133 369.36V374H123.309V365.184H125.133V366.464ZM128.842 369.552C128.842 368.667 129.023 367.883 129.386 367.2C129.759 366.517 130.261 365.989 130.89 365.616C131.53 365.232 132.234 365.04 133.002 365.04C133.695 365.04 134.298 365.179 134.81 365.456C135.333 365.723 135.749 366.059 136.058 366.464V365.184H137.898V374H136.058V372.688C135.749 373.104 135.327 373.451 134.794 373.728C134.261 374.005 133.653 374.144 132.97 374.144C132.213 374.144 131.519 373.952 130.89 373.568C130.261 373.173 129.759 372.629 129.386 371.936C129.023 371.232 128.842 370.437 128.842 369.552ZM136.058 369.584C136.058 368.976 135.93 368.448 135.674 368C135.429 367.552 135.103 367.211 134.698 366.976C134.293 366.741 133.855 366.624 133.386 366.624C132.917 366.624 132.479 366.741 132.074 366.976C131.669 367.2 131.338 367.536 131.082 367.984C130.837 368.421 130.714 368.944 130.714 369.552C130.714 370.16 130.837 370.693 131.082 371.152C131.338 371.611 131.669 371.963 132.074 372.208C132.49 372.443 132.927 372.56 133.386 372.56C133.855 372.56 134.293 372.443 134.698 372.208C135.103 371.973 135.429 371.632 135.674 371.184C135.93 370.725 136.058 370.192 136.058 369.584ZM142.422 366.672V371.552C142.422 371.883 142.496 372.123 142.646 372.272C142.806 372.411 143.072 372.48 143.446 372.48H144.566V374H143.126C142.304 374 141.675 373.808 141.238 373.424C140.8 373.04 140.582 372.416 140.582 371.552V366.672H139.542V365.184H140.582V362.992H142.422V365.184H144.566V366.672H142.422ZM147.175 364.016C146.844 364.016 146.567 363.904 146.343 363.68C146.119 363.456 146.007 363.179 146.007 362.848C146.007 362.517 146.119 362.24 146.343 362.016C146.567 361.792 146.844 361.68 147.175 361.68C147.495 361.68 147.767 361.792 147.991 362.016C148.215 362.24 148.327 362.517 148.327 362.848C148.327 363.179 148.215 363.456 147.991 363.68C147.767 363.904 147.495 364.016 147.175 364.016ZM148.071 365.184V374H146.247V365.184H148.071ZM154.914 365.04C155.607 365.04 156.226 365.184 156.77 365.472C157.324 365.76 157.756 366.187 158.066 366.752C158.375 367.317 158.53 368 158.53 368.8V374H156.722V369.072C156.722 368.283 156.524 367.68 156.13 367.264C155.735 366.837 155.196 366.624 154.514 366.624C153.831 366.624 153.287 366.837 152.882 367.264C152.487 367.68 152.29 368.283 152.29 369.072V374H150.466V365.184H152.29V366.192C152.588 365.829 152.967 365.547 153.426 365.344C153.895 365.141 154.391 365.04 154.914 365.04ZM164.408 365.04C165.091 365.04 165.694 365.179 166.216 365.456C166.75 365.723 167.166 366.059 167.464 366.464V365.184H169.304V374.144C169.304 374.955 169.134 375.675 168.792 376.304C168.451 376.944 167.955 377.445 167.304 377.808C166.664 378.171 165.896 378.352 165 378.352C163.806 378.352 162.814 378.069 162.024 377.504C161.235 376.949 160.787 376.192 160.68 375.232H162.488C162.627 375.691 162.92 376.059 163.368 376.336C163.827 376.624 164.371 376.768 165 376.768C165.736 376.768 166.328 376.544 166.776 376.096C167.235 375.648 167.464 374.997 167.464 374.144V372.672C167.155 373.088 166.734 373.44 166.2 373.728C165.678 374.005 165.08 374.144 164.408 374.144C163.64 374.144 162.936 373.952 162.296 373.568C161.667 373.173 161.166 372.629 160.792 371.936C160.43 371.232 160.248 370.437 160.248 369.552C160.248 368.667 160.43 367.883 160.792 367.2C161.166 366.517 161.667 365.989 162.296 365.616C162.936 365.232 163.64 365.04 164.408 365.04ZM167.464 369.584C167.464 368.976 167.336 368.448 167.08 368C166.835 367.552 166.51 367.211 166.104 366.976C165.699 366.741 165.262 366.624 164.792 366.624C164.323 366.624 163.886 366.741 163.48 366.976C163.075 367.2 162.744 367.536 162.488 367.984C162.243 368.421 162.12 368.944 162.12 369.552C162.12 370.16 162.243 370.693 162.488 371.152C162.744 371.611 163.075 371.963 163.48 372.208C163.896 372.443 164.334 372.56 164.792 372.56C165.262 372.56 165.699 372.443 166.104 372.208C166.51 371.973 166.835 371.632 167.08 371.184C167.336 370.725 167.464 370.192 167.464 369.584Z" fill="#3029D9"/>
<mask id="mask2" style="mask-type:alpha" maskUnits="userSpaceOnUse" x="306" y="197" width="278" height="171">
<path d="M584 288C584 332.183 548.183 368 504 368L306 368L306 277C306 232.817 341.817 197 386 197L504 197C548.183 197 584 232.817 584 277L584 288Z" fill="white"/>
</mask>
<g mask="url(#mask2)">
<g opacity="0.2" filter="url(#filter2_d)">
<rect x="94" y="81.9998" width="1157" height="772" fill="#3029D9"/>
</g>
</g>
<path d="M357.188 258.876V251.88H369.376V284H361.544V258.876H357.188ZM397.139 258.436H383.411V264.508C383.998 263.863 384.819 263.335 385.875 262.924C386.931 262.513 388.075 262.308 389.307 262.308C391.507 262.308 393.326 262.807 394.763 263.804C396.23 264.801 397.3 266.092 397.975 267.676C398.65 269.26 398.987 270.976 398.987 272.824C398.987 276.256 398.019 278.984 396.083 281.008C394.147 283.003 391.419 284 387.899 284C385.552 284 383.514 283.604 381.783 282.812C380.052 281.991 378.718 280.861 377.779 279.424C376.84 277.987 376.327 276.329 376.239 274.452H383.587C383.763 275.361 384.188 276.124 384.863 276.74C385.538 277.327 386.462 277.62 387.635 277.62C389.014 277.62 390.04 277.18 390.715 276.3C391.39 275.42 391.727 274.247 391.727 272.78C391.727 271.343 391.375 270.243 390.671 269.48C389.967 268.717 388.94 268.336 387.591 268.336C386.594 268.336 385.772 268.585 385.127 269.084C384.482 269.553 384.056 270.184 383.851 270.976H376.591V251.836H397.139V258.436ZM403.14 267.5C403.14 262.455 404.108 258.48 406.044 255.576C408.009 252.672 411.163 251.22 415.504 251.22C419.845 251.22 422.984 252.672 424.92 255.576C426.885 258.48 427.868 262.455 427.868 267.5C427.868 272.604 426.885 276.608 424.92 279.512C422.984 282.416 419.845 283.868 415.504 283.868C411.163 283.868 408.009 282.416 406.044 279.512C404.108 276.608 403.14 272.604 403.14 267.5ZM420.476 267.5C420.476 264.537 420.153 262.264 419.508 260.68C418.863 259.067 417.528 258.26 415.504 258.26C413.48 258.26 412.145 259.067 411.5 260.68C410.855 262.264 410.532 264.537 410.532 267.5C410.532 269.495 410.649 271.152 410.884 272.472C411.119 273.763 411.588 274.819 412.292 275.64C413.025 276.432 414.096 276.828 415.504 276.828C416.912 276.828 417.968 276.432 418.672 275.64C419.405 274.819 419.889 273.763 420.124 272.472C420.359 271.152 420.476 269.495 420.476 267.5ZM454.899 271.988H447.243V279.82H440.115V271.988H432.459V265.256H440.115V257.38H447.243V265.256H454.899V271.988Z" fill="#3029D9"/>
<path d="M360.864 323.112C360.117 323.112 359.445 322.984 358.848 322.728C358.251 322.461 357.781 322.088 357.44 321.608C357.099 321.128 356.928 320.568 356.928 319.928H358.88C358.923 320.408 359.109 320.803 359.44 321.112C359.781 321.421 360.256 321.576 360.864 321.576C361.493 321.576 361.984 321.427 362.336 321.128C362.688 320.819 362.864 320.424 362.864 319.944C362.864 319.571 362.752 319.267 362.528 319.032C362.315 318.797 362.043 318.616 361.712 318.488C361.392 318.36 360.944 318.221 360.368 318.072C359.643 317.88 359.051 317.688 358.592 317.496C358.144 317.293 357.76 316.984 357.44 316.568C357.12 316.152 356.96 315.597 356.96 314.904C356.96 314.264 357.12 313.704 357.44 313.224C357.76 312.744 358.208 312.376 358.784 312.12C359.36 311.864 360.027 311.736 360.784 311.736C361.861 311.736 362.741 312.008 363.424 312.552C364.117 313.085 364.501 313.821 364.576 314.76H362.56C362.528 314.355 362.336 314.008 361.984 313.72C361.632 313.432 361.168 313.288 360.592 313.288C360.069 313.288 359.643 313.421 359.312 313.688C358.981 313.955 358.816 314.339 358.816 314.84C358.816 315.181 358.917 315.464 359.12 315.688C359.333 315.901 359.6 316.072 359.92 316.2C360.24 316.328 360.677 316.467 361.232 316.616C361.968 316.819 362.565 317.021 363.024 317.224C363.493 317.427 363.888 317.741 364.208 318.168C364.539 318.584 364.704 319.144 364.704 319.848C364.704 320.413 364.549 320.947 364.24 321.448C363.941 321.949 363.499 322.355 362.912 322.664C362.336 322.963 361.653 323.112 360.864 323.112ZM374.936 318.376C374.936 318.707 374.915 319.005 374.872 319.272H368.136C368.19 319.976 368.451 320.541 368.92 320.968C369.39 321.395 369.966 321.608 370.648 321.608C371.63 321.608 372.323 321.197 372.728 320.376H374.696C374.43 321.187 373.944 321.853 373.24 322.376C372.547 322.888 371.683 323.144 370.648 323.144C369.806 323.144 369.048 322.957 368.376 322.584C367.715 322.2 367.192 321.667 366.808 320.984C366.435 320.291 366.248 319.491 366.248 318.584C366.248 317.677 366.43 316.883 366.792 316.2C367.166 315.507 367.683 314.973 368.344 314.6C369.016 314.227 369.784 314.04 370.648 314.04C371.48 314.04 372.222 314.221 372.872 314.584C373.523 314.947 374.03 315.459 374.392 316.12C374.755 316.771 374.936 317.523 374.936 318.376ZM373.032 317.8C373.022 317.128 372.782 316.589 372.312 316.184C371.843 315.779 371.262 315.576 370.568 315.576C369.939 315.576 369.4 315.779 368.952 316.184C368.504 316.579 368.238 317.117 368.152 317.8H373.032ZM378.555 315.464C378.822 315.016 379.174 314.669 379.611 314.424C380.059 314.168 380.587 314.04 381.195 314.04V315.928H380.731C380.017 315.928 379.473 316.109 379.099 316.472C378.737 316.835 378.555 317.464 378.555 318.36V323H376.731V314.184H378.555V315.464ZM386.28 321.368L388.776 314.184H390.712L387.352 323H385.176L381.832 314.184H383.784L386.28 321.368ZM400.171 318.376C400.171 318.707 400.149 319.005 400.107 319.272H393.371C393.424 319.976 393.685 320.541 394.155 320.968C394.624 321.395 395.2 321.608 395.883 321.608C396.864 321.608 397.557 321.197 397.963 320.376H399.931C399.664 321.187 399.179 321.853 398.475 322.376C397.781 322.888 396.917 323.144 395.883 323.144C395.04 323.144 394.283 322.957 393.611 322.584C392.949 322.2 392.427 321.667 392.043 320.984C391.669 320.291 391.483 319.491 391.483 318.584C391.483 317.677 391.664 316.883 392.027 316.2C392.4 315.507 392.917 314.973 393.579 314.6C394.251 314.227 395.019 314.04 395.883 314.04C396.715 314.04 397.456 314.221 398.107 314.584C398.757 314.947 399.264 315.459 399.627 316.12C399.989 316.771 400.171 317.523 400.171 318.376ZM398.267 317.8C398.256 317.128 398.016 316.589 397.547 316.184C397.077 315.779 396.496 315.576 395.803 315.576C395.173 315.576 394.635 315.779 394.187 316.184C393.739 316.579 393.472 317.117 393.387 317.8H398.267ZM401.358 318.552C401.358 317.667 401.539 316.883 401.902 316.2C402.275 315.517 402.776 314.989 403.406 314.616C404.046 314.232 404.755 314.04 405.534 314.04C406.11 314.04 406.675 314.168 407.23 314.424C407.795 314.669 408.243 315 408.574 315.416V311.16H410.414V323H408.574V321.672C408.275 322.099 407.859 322.451 407.326 322.728C406.803 323.005 406.2 323.144 405.518 323.144C404.75 323.144 404.046 322.952 403.406 322.568C402.776 322.173 402.275 321.629 401.902 320.936C401.539 320.232 401.358 319.437 401.358 318.552ZM408.574 318.584C408.574 317.976 408.446 317.448 408.19 317C407.944 316.552 407.619 316.211 407.214 315.976C406.808 315.741 406.371 315.624 405.902 315.624C405.432 315.624 404.995 315.741 404.59 315.976C404.184 316.2 403.854 316.536 403.598 316.984C403.352 317.421 403.23 317.944 403.23 318.552C403.23 319.16 403.352 319.693 403.598 320.152C403.854 320.611 404.184 320.963 404.59 321.208C405.006 321.443 405.443 321.56 405.902 321.56C406.371 321.56 406.808 321.443 407.214 321.208C407.619 320.973 407.944 320.632 408.19 320.184C408.446 319.725 408.574 319.192 408.574 318.584Z" fill="#3029D9"/>
<mask id="mask3" style="mask-type:alpha" maskUnits="userSpaceOnUse" x="306" y="0" width="278" height="171">
<path d="M584 91C584 135.183 548.183 171 504 171L306 171L306 80C306 35.8172 341.817 9.34529e-06 386 1.32079e-05L504 2.35238e-05C548.183 2.73863e-05 584 35.8172 584 80L584 91Z" fill="white"/>
</mask>
<g mask="url(#mask3)">
<g opacity="0.2" filter="url(#filter3_d)">
<rect x="94" y="-115" width="1157" height="772" fill="#3029D9"/>
</g>
</g>
<path d="M357.716 85.972C358.713 85.18 359.168 84.8133 359.08 84.872C361.955 82.496 364.213 80.5453 365.856 79.02C367.528 77.4947 368.936 75.896 370.08 74.224C371.224 72.552 371.796 70.924 371.796 69.34C371.796 68.1373 371.517 67.1987 370.96 66.524C370.403 65.8493 369.567 65.512 368.452 65.512C367.337 65.512 366.457 65.9373 365.812 66.788C365.196 67.6093 364.888 68.7827 364.888 70.308H357.628C357.687 67.8147 358.215 65.732 359.212 64.06C360.239 62.388 361.573 61.156 363.216 60.364C364.888 59.572 366.736 59.176 368.76 59.176C372.251 59.176 374.876 60.0707 376.636 61.86C378.425 63.6493 379.32 65.9813 379.32 68.856C379.32 71.9947 378.249 74.9133 376.108 77.612C373.967 80.2813 371.239 82.892 367.924 85.444H379.804V91.56H357.716V85.972ZM383.293 86.28V80.208L397.197 60.32H405.601V79.768H409.209V86.28H405.601V92H398.077V86.28H383.293ZM398.605 68.592L391.213 79.768H398.605V68.592ZM412.894 75.5C412.894 70.4547 413.862 66.48 415.798 63.576C417.763 60.672 420.917 59.22 425.258 59.22C429.599 59.22 432.738 60.672 434.674 63.576C436.639 66.48 437.622 70.4547 437.622 75.5C437.622 80.604 436.639 84.608 434.674 87.512C432.738 90.416 429.599 91.868 425.258 91.868C420.917 91.868 417.763 90.416 415.798 87.512C413.862 84.608 412.894 80.604 412.894 75.5ZM430.23 75.5C430.23 72.5373 429.907 70.264 429.262 68.68C428.617 67.0667 427.282 66.26 425.258 66.26C423.234 66.26 421.899 67.0667 421.254 68.68C420.609 70.264 420.286 72.5373 420.286 75.5C420.286 77.4947 420.403 79.152 420.638 80.472C420.873 81.7627 421.342 82.8187 422.046 83.64C422.779 84.432 423.85 84.828 425.258 84.828C426.666 84.828 427.722 84.432 428.426 83.64C429.159 82.8187 429.643 81.7627 429.878 80.472C430.113 79.152 430.23 77.4947 430.23 75.5ZM464.653 79.988H456.997V87.82H449.869V79.988H442.213V73.256H449.869V65.38H456.997V73.256H464.653V79.988Z" fill="#3029D9"/>
<path d="M356.592 113.416C356.592 112.328 356.843 111.352 357.344 110.488C357.856 109.624 358.544 108.952 359.408 108.472C360.283 107.981 361.237 107.736 362.272 107.736C363.456 107.736 364.507 108.029 365.424 108.616C366.352 109.192 367.024 110.013 367.44 111.08H365.248C364.96 110.493 364.56 110.056 364.048 109.768C363.536 109.48 362.944 109.336 362.272 109.336C361.536 109.336 360.88 109.501 360.304 109.832C359.728 110.163 359.275 110.637 358.944 111.256C358.624 111.875 358.464 112.595 358.464 113.416C358.464 114.237 358.624 114.957 358.944 115.576C359.275 116.195 359.728 116.675 360.304 117.016C360.88 117.347 361.536 117.512 362.272 117.512C362.944 117.512 363.536 117.368 364.048 117.08C364.56 116.792 364.96 116.355 365.248 115.768H367.44C367.024 116.835 366.352 117.656 365.424 118.232C364.507 118.808 363.456 119.096 362.272 119.096C361.227 119.096 360.272 118.856 359.408 118.376C358.544 117.885 357.856 117.208 357.344 116.344C356.843 115.48 356.592 114.504 356.592 113.416ZM373.399 119.144C372.567 119.144 371.815 118.957 371.143 118.584C370.471 118.2 369.943 117.667 369.559 116.984C369.175 116.291 368.983 115.491 368.983 114.584C368.983 113.688 369.18 112.893 369.575 112.2C369.97 111.507 370.508 110.973 371.191 110.6C371.874 110.227 372.636 110.04 373.479 110.04C374.322 110.04 375.084 110.227 375.767 110.6C376.45 110.973 376.988 111.507 377.383 112.2C377.778 112.893 377.975 113.688 377.975 114.584C377.975 115.48 377.772 116.275 377.367 116.968C376.962 117.661 376.407 118.2 375.703 118.584C375.01 118.957 374.242 119.144 373.399 119.144ZM373.399 117.56C373.868 117.56 374.306 117.448 374.711 117.224C375.127 117 375.463 116.664 375.719 116.216C375.975 115.768 376.103 115.224 376.103 114.584C376.103 113.944 375.98 113.405 375.735 112.968C375.49 112.52 375.164 112.184 374.759 111.96C374.354 111.736 373.916 111.624 373.447 111.624C372.978 111.624 372.54 111.736 372.135 111.96C371.74 112.184 371.426 112.52 371.191 112.968C370.956 113.405 370.839 113.944 370.839 114.584C370.839 115.533 371.079 116.269 371.559 116.792C372.05 117.304 372.663 117.56 373.399 117.56ZM390.45 110.04C391.143 110.04 391.762 110.184 392.306 110.472C392.861 110.76 393.293 111.187 393.602 111.752C393.922 112.317 394.082 113 394.082 113.8V119H392.274V114.072C392.274 113.283 392.077 112.68 391.682 112.264C391.287 111.837 390.749 111.624 390.066 111.624C389.383 111.624 388.839 111.837 388.434 112.264C388.039 112.68 387.842 113.283 387.842 114.072V119H386.034V114.072C386.034 113.283 385.837 112.68 385.442 112.264C385.047 111.837 384.509 111.624 383.826 111.624C383.143 111.624 382.599 111.837 382.194 112.264C381.799 112.68 381.602 113.283 381.602 114.072V119H379.778V110.184H381.602V111.192C381.901 110.829 382.279 110.547 382.738 110.344C383.197 110.141 383.687 110.04 384.21 110.04C384.914 110.04 385.543 110.189 386.098 110.488C386.653 110.787 387.079 111.219 387.378 111.784C387.645 111.251 388.061 110.829 388.626 110.52C389.191 110.2 389.799 110.04 390.45 110.04ZM398.227 111.48C398.536 111.075 398.958 110.733 399.491 110.456C400.024 110.179 400.627 110.04 401.299 110.04C402.067 110.04 402.766 110.232 403.395 110.616C404.035 110.989 404.536 111.517 404.899 112.2C405.262 112.883 405.443 113.667 405.443 114.552C405.443 115.437 405.262 116.232 404.899 116.936C404.536 117.629 404.035 118.173 403.395 118.568C402.766 118.952 402.067 119.144 401.299 119.144C400.627 119.144 400.03 119.011 399.507 118.744C398.984 118.467 398.558 118.125 398.227 117.72V123.192H396.403V110.184H398.227V111.48ZM403.587 114.552C403.587 113.944 403.459 113.421 403.203 112.984C402.958 112.536 402.627 112.2 402.211 111.976C401.806 111.741 401.368 111.624 400.899 111.624C400.44 111.624 400.003 111.741 399.587 111.976C399.182 112.211 398.851 112.552 398.595 113C398.35 113.448 398.227 113.976 398.227 114.584C398.227 115.192 398.35 115.725 398.595 116.184C398.851 116.632 399.182 116.973 399.587 117.208C400.003 117.443 400.44 117.56 400.899 117.56C401.368 117.56 401.806 117.443 402.211 117.208C402.627 116.963 402.958 116.611 403.203 116.152C403.459 115.693 403.587 115.16 403.587 114.552ZM409.071 107.16V119H407.247V107.16H409.071ZM419.546 114.376C419.546 114.707 419.524 115.005 419.482 115.272H412.746C412.799 115.976 413.06 116.541 413.53 116.968C413.999 117.395 414.575 117.608 415.258 117.608C416.239 117.608 416.932 117.197 417.338 116.376H419.306C419.039 117.187 418.554 117.853 417.85 118.376C417.156 118.888 416.292 119.144 415.258 119.144C414.415 119.144 413.658 118.957 412.986 118.584C412.324 118.2 411.802 117.667 411.418 116.984C411.044 116.291 410.858 115.491 410.858 114.584C410.858 113.677 411.039 112.883 411.402 112.2C411.775 111.507 412.292 110.973 412.954 110.6C413.626 110.227 414.394 110.04 415.258 110.04C416.09 110.04 416.831 110.221 417.482 110.584C418.132 110.947 418.639 111.459 419.002 112.12C419.364 112.771 419.546 113.523 419.546 114.376ZM417.642 113.8C417.631 113.128 417.391 112.589 416.922 112.184C416.452 111.779 415.871 111.576 415.178 111.576C414.548 111.576 414.01 111.779 413.562 112.184C413.114 112.579 412.847 113.117 412.762 113.8H417.642ZM423.469 111.672V116.552C423.469 116.883 423.543 117.123 423.693 117.272C423.853 117.411 424.119 117.48 424.493 117.48H425.613V119H424.173C423.351 119 422.722 118.808 422.285 118.424C421.847 118.04 421.629 117.416 421.629 116.552V111.672H420.589V110.184H421.629V107.992H423.469V110.184H425.613V111.672H423.469ZM435.374 114.376C435.374 114.707 435.352 115.005 435.31 115.272H428.574C428.627 115.976 428.888 116.541 429.358 116.968C429.827 117.395 430.403 117.608 431.086 117.608C432.067 117.608 432.76 117.197 433.166 116.376H435.134C434.867 117.187 434.382 117.853 433.678 118.376C432.984 118.888 432.12 119.144 431.086 119.144C430.243 119.144 429.486 118.957 428.814 118.584C428.152 118.2 427.63 117.667 427.246 116.984C426.872 116.291 426.686 115.491 426.686 114.584C426.686 113.677 426.867 112.883 427.23 112.2C427.603 111.507 428.12 110.973 428.782 110.6C429.454 110.227 430.222 110.04 431.086 110.04C431.918 110.04 432.659 110.221 433.31 110.584C433.96 110.947 434.467 111.459 434.83 112.12C435.192 112.771 435.374 113.523 435.374 114.376ZM433.47 113.8C433.459 113.128 433.219 112.589 432.75 112.184C432.28 111.779 431.699 111.576 431.006 111.576C430.376 111.576 429.838 111.779 429.39 112.184C428.942 112.579 428.675 113.117 428.59 113.8H433.47ZM436.561 114.552C436.561 113.667 436.742 112.883 437.105 112.2C437.478 111.517 437.979 110.989 438.609 110.616C439.249 110.232 439.958 110.04 440.737 110.04C441.313 110.04 441.878 110.168 442.433 110.424C442.998 110.669 443.446 111 443.777 111.416V107.16H445.617V119H443.777V117.672C443.478 118.099 443.062 118.451 442.529 118.728C442.006 119.005 441.403 119.144 440.721 119.144C439.953 119.144 439.249 118.952 438.609 118.568C437.979 118.173 437.478 117.629 437.105 116.936C436.742 116.232 436.561 115.437 436.561 114.552ZM443.777 114.584C443.777 113.976 443.649 113.448 443.393 113C443.147 112.552 442.822 112.211 442.417 111.976C442.011 111.741 441.574 111.624 441.105 111.624C440.635 111.624 440.198 111.741 439.793 111.976C439.387 112.2 439.057 112.536 438.801 112.984C438.555 113.421 438.433 113.944 438.433 114.552C438.433 115.16 438.555 115.693 438.801 116.152C439.057 116.611 439.387 116.963 439.793 117.208C440.209 117.443 440.646 117.56 441.105 117.56C441.574 117.56 442.011 117.443 442.417 117.208C442.822 116.973 443.147 116.632 443.393 116.184C443.649 115.725 443.777 115.192 443.777 114.584ZM459.945 111.192C459.945 111.757 459.811 112.291 459.545 112.792C459.278 113.293 458.851 113.704 458.265 114.024C457.678 114.333 456.926 114.488 456.009 114.488H453.993V119H452.169V107.88H456.009C456.862 107.88 457.582 108.029 458.169 108.328C458.766 108.616 459.209 109.011 459.497 109.512C459.795 110.013 459.945 110.573 459.945 111.192ZM456.009 113C456.702 113 457.219 112.845 457.561 112.536C457.902 112.216 458.073 111.768 458.073 111.192C458.073 109.976 457.385 109.368 456.009 109.368H453.993V113H456.009ZM463.508 111.464C463.775 111.016 464.127 110.669 464.564 110.424C465.012 110.168 465.54 110.04 466.148 110.04V111.928H465.684C464.97 111.928 464.426 112.109 464.052 112.472C463.69 112.835 463.508 113.464 463.508 114.36V119H461.684V110.184H463.508V111.464ZM471.649 119.144C470.817 119.144 470.065 118.957 469.393 118.584C468.721 118.2 468.193 117.667 467.809 116.984C467.425 116.291 467.233 115.491 467.233 114.584C467.233 113.688 467.43 112.893 467.825 112.2C468.22 111.507 468.758 110.973 469.441 110.6C470.124 110.227 470.886 110.04 471.729 110.04C472.572 110.04 473.334 110.227 474.017 110.6C474.7 110.973 475.238 111.507 475.633 112.2C476.028 112.893 476.225 113.688 476.225 114.584C476.225 115.48 476.022 116.275 475.617 116.968C475.212 117.661 474.657 118.2 473.953 118.584C473.26 118.957 472.492 119.144 471.649 119.144ZM471.649 117.56C472.118 117.56 472.556 117.448 472.961 117.224C473.377 117 473.713 116.664 473.969 116.216C474.225 115.768 474.353 115.224 474.353 114.584C474.353 113.944 474.23 113.405 473.985 112.968C473.74 112.52 473.414 112.184 473.009 111.96C472.604 111.736 472.166 111.624 471.697 111.624C471.228 111.624 470.79 111.736 470.385 111.96C469.99 112.184 469.676 112.52 469.441 112.968C469.206 113.405 469.089 113.944 469.089 114.584C469.089 115.533 469.329 116.269 469.809 116.792C470.3 117.304 470.913 117.56 471.649 117.56ZM478.956 109.016C478.625 109.016 478.348 108.904 478.124 108.68C477.9 108.456 477.788 108.179 477.788 107.848C477.788 107.517 477.9 107.24 478.124 107.016C478.348 106.792 478.625 106.68 478.956 106.68C479.276 106.68 479.548 106.792 479.772 107.016C479.996 107.24 480.108 107.517 480.108 107.848C480.108 108.179 479.996 108.456 479.772 108.68C479.548 108.904 479.276 109.016 478.956 109.016ZM479.852 120.728C479.852 121.592 479.633 122.216 479.196 122.6C478.769 122.995 478.145 123.192 477.324 123.192H476.38V121.656H477.004C477.377 121.656 477.639 121.581 477.788 121.432C477.948 121.293 478.028 121.059 478.028 120.728V110.184H479.852V120.728ZM490.327 114.376C490.327 114.707 490.306 115.005 490.263 115.272H483.527C483.58 115.976 483.842 116.541 484.311 116.968C484.78 117.395 485.356 117.608 486.039 117.608C487.02 117.608 487.714 117.197 488.119 116.376H490.087C489.82 117.187 489.335 117.853 488.631 118.376C487.938 118.888 487.074 119.144 486.039 119.144C485.196 119.144 484.439 118.957 483.767 118.584C483.106 118.2 482.583 117.667 482.199 116.984C481.826 116.291 481.639 115.491 481.639 114.584C481.639 113.677 481.82 112.883 482.183 112.2C482.556 111.507 483.074 110.973 483.735 110.6C484.407 110.227 485.175 110.04 486.039 110.04C486.871 110.04 487.612 110.221 488.263 110.584C488.914 110.947 489.42 111.459 489.783 112.12C490.146 112.771 490.327 113.523 490.327 114.376ZM488.423 113.8C488.412 113.128 488.172 112.589 487.703 112.184C487.234 111.779 486.652 111.576 485.959 111.576C485.33 111.576 484.791 111.779 484.343 112.184C483.895 112.579 483.628 113.117 483.543 113.8H488.423ZM491.514 114.584C491.514 113.677 491.695 112.883 492.058 112.2C492.431 111.507 492.943 110.973 493.594 110.6C494.245 110.227 494.991 110.04 495.834 110.04C496.901 110.04 497.781 110.296 498.474 110.808C499.178 111.309 499.653 112.029 499.898 112.968H497.93C497.77 112.531 497.514 112.189 497.162 111.944C496.81 111.699 496.367 111.576 495.834 111.576C495.087 111.576 494.49 111.843 494.042 112.376C493.605 112.899 493.386 113.635 493.386 114.584C493.386 115.533 493.605 116.275 494.042 116.808C494.49 117.341 495.087 117.608 495.834 117.608C496.89 117.608 497.589 117.144 497.93 116.216H499.898C499.642 117.112 499.162 117.827 498.458 118.36C497.754 118.883 496.879 119.144 495.834 119.144C494.991 119.144 494.245 118.957 493.594 118.584C492.943 118.2 492.431 117.667 492.058 116.984C491.695 116.291 491.514 115.491 491.514 114.584ZM503.844 111.672V116.552C503.844 116.883 503.918 117.123 504.068 117.272C504.228 117.411 504.494 117.48 504.868 117.48H505.988V119H504.548C503.726 119 503.097 118.808 502.66 118.424C502.222 118.04 502.004 117.416 502.004 116.552V111.672H500.964V110.184H502.004V107.992H503.844V110.184H505.988V111.672H503.844ZM510.869 119.144C510.175 119.144 509.551 119.021 508.997 118.776C508.453 118.52 508.021 118.179 507.701 117.752C507.381 117.315 507.21 116.829 507.189 116.296H509.077C509.109 116.669 509.285 116.984 509.605 117.24C509.935 117.485 510.346 117.608 510.837 117.608C511.349 117.608 511.743 117.512 512.021 117.32C512.309 117.117 512.453 116.861 512.453 116.552C512.453 116.221 512.293 115.976 511.973 115.816C511.663 115.656 511.167 115.48 510.485 115.288C509.823 115.107 509.285 114.931 508.869 114.76C508.453 114.589 508.09 114.328 507.781 113.976C507.482 113.624 507.333 113.16 507.333 112.584C507.333 112.115 507.471 111.688 507.749 111.304C508.026 110.909 508.421 110.6 508.933 110.376C509.455 110.152 510.053 110.04 510.725 110.04C511.727 110.04 512.533 110.296 513.141 110.808C513.759 111.309 514.09 111.997 514.133 112.872H512.309C512.277 112.477 512.117 112.163 511.829 111.928C511.541 111.693 511.151 111.576 510.661 111.576C510.181 111.576 509.813 111.667 509.557 111.848C509.301 112.029 509.173 112.269 509.173 112.568C509.173 112.803 509.258 113 509.429 113.16C509.599 113.32 509.807 113.448 510.053 113.544C510.298 113.629 510.661 113.741 511.141 113.88C511.781 114.051 512.303 114.227 512.709 114.408C513.125 114.579 513.482 114.835 513.781 115.176C514.079 115.517 514.234 115.971 514.245 116.536C514.245 117.037 514.106 117.485 513.829 117.88C513.551 118.275 513.157 118.584 512.645 118.808C512.143 119.032 511.551 119.144 510.869 119.144Z" fill="#3029D9"/>
<defs>
<filter id="filter0_d" x="-717" y="-471" width="1257" height="872" filterUnits="userSpaceOnUse" color-interpolation-filters="sRGB">
<feFlood flood-opacity="0" result="BackgroundImageFix"/>
<feColorMatrix in="SourceAlpha" type="matrix" values="0 0 0 0 0 0 0 0 0 0 0 0 0 0 0 0 0 0 127 0" result="hardAlpha"/>
<feOffset dy="10"/>
<feGaussianBlur stdDeviation="25"/>
<feColorMatrix type="matrix" values="0 0 0 0 0.188235 0 0 0 0 0.160784 0 0 0 0 0.85098 0 0 0 0.3 0"/>
<feBlend mode="normal" in2="BackgroundImageFix" result="effect1_dropShadow"/>
<feBlend mode="normal" in="SourceGraphic" in2="effect1_dropShadow" result="shape"/>
</filter>
<filter id="filter1_d" x="-717" y="-277" width="1257" height="872" filterUnits="userSpaceOnUse" color-interpolation-filters="sRGB">
<feFlood flood-opacity="0" result="BackgroundImageFix"/>
<feColorMatrix in="SourceAlpha" type="matrix" values="0 0 0 0 0 0 0 0 0 0 0 0 0 0 0 0 0 0 127 0" result="hardAlpha"/>
<feOffset dy="10"/>
<feGaussianBlur stdDeviation="25"/>
<feColorMatrix type="matrix" values="0 0 0 0 0.188235 0 0 0 0 0.160784 0 0 0 0 0.85098 0 0 0 0.3 0"/>
<feBlend mode="normal" in2="BackgroundImageFix" result="effect1_dropShadow"/>
<feBlend mode="normal" in="SourceGraphic" in2="effect1_dropShadow" result="shape"/>
</filter>
<filter id="filter2_d" x="44" y="41.9998" width="1257" height="872" filterUnits="userSpaceOnUse" color-interpolation-filters="sRGB">
<feFlood flood-opacity="0" result="BackgroundImageFix"/>
<feColorMatrix in="SourceAlpha" type="matrix" values="0 0 0 0 0 0 0 0 0 0 0 0 0 0 0 0 0 0 127 0" result="hardAlpha"/>
<feOffset dy="10"/>
<feGaussianBlur stdDeviation="25"/>
<feColorMatrix type="matrix" values="0 0 0 0 0.188235 0 0 0 0 0.160784 0 0 0 0 0.85098 0 0 0 0.3 0"/>
<feBlend mode="normal" in2="BackgroundImageFix" result="effect1_dropShadow"/>
<feBlend mode="normal" in="SourceGraphic" in2="effect1_dropShadow" result="shape"/>
</filter>
<filter id="filter3_d" x="44" y="-155" width="1257" height="872" filterUnits="userSpaceOnUse" color-interpolation-filters="sRGB">
<feFlood flood-opacity="0" result="BackgroundImageFix"/>
<feColorMatrix in="SourceAlpha" type="matrix" values="0 0 0 0 0 0 0 0 0 0 0 0 0 0 0 0 0 0 127 0" result="hardAlpha"/>
<feOffset dy="10"/>
<feGaussianBlur stdDeviation="25"/>
<feColorMatrix type="matrix" values="0 0 0 0 0.188235 0 0 0 0 0.160784 0 0 0 0 0.85098 0 0 0 0.3 0"/>
<feBlend mode="normal" in2="BackgroundImageFix" result="effect1_dropShadow"/>
<feBlend mode="normal" in="SourceGraphic" in2="effect1_dropShadow" result="shape"/>
</filter>
</defs>
</svg>
